<svg xmlns="http://www.w3.org/2000/svg" xmlns:xlink="http://www.w3.org/1999/xlink" width="2000" zoomAndPan="magnify" viewBox="0 0 1500 1499.999933" height="2000" preserveAspectRatio="xMidYMid meet" version="1.0"><defs><clipPath id="28d316eee3"><path d="M 750 0 C 335.785156 0 0 335.785156 0 750 C 0 1164.214844 335.785156 1500 750 1500 C 1164.214844 1500 1500 1164.214844 1500 750 C 1500 335.785156 1164.214844 0 750 0 Z M 750 0 " clip-rule="nonzero"/></clipPath><clipPath id="7cad91c954"><path d="M 477.269531 226.183594 L 846.59375 226.183594 L 846.59375 366.394531 L 477.269531 366.394531 Z M 477.269531 226.183594 " clip-rule="nonzero"/></clipPath><clipPath id="c5963fe358"><path d="M 324.621094 407.128906 L 709.246094 407.128906 L 709.246094 672.808594 L 324.621094 672.808594 Z M 324.621094 407.128906 " clip-rule="nonzero"/></clipPath><clipPath id="21e885a648"><path d="M 833.457031 602.765625 L 1199.457031 602.765625 L 1199.457031 887.015625 L 833.457031 887.015625 Z M 833.457031 602.765625 " clip-rule="nonzero"/></clipPath><clipPath id="d51b7d3a69"><path d="M 817.9375 792.398438 L 1141.523438 792.398438 L 1141.523438 915.210938 L 817.9375 915.210938 Z M 817.9375 792.398438 " clip-rule="nonzero"/></clipPath><clipPath id="de93815425"><path d="M 930.148438 805.199219 L 1195.789062 805.199219 L 1195.789062 1189.824219 L 930.148438 1189.824219 Z M 930.148438 805.199219 " clip-rule="nonzero"/></clipPath><clipPath id="ecedd5d967"><path d="M 650.449219 602 L 791 602 L 791 971.863281 L 650.449219 971.863281 Z M 650.449219 602 " clip-rule="nonzero"/></clipPath><clipPath id="81f2260e17"><path d="M 0.449219 0.175781 L 140.660156 0.175781 L 140.660156 369.5 L 0.449219 369.5 Z M 0.449219 0.175781 " clip-rule="nonzero"/></clipPath><clipPath id="a8fc4cd155"><rect x="0" width="141" y="0" height="370"/></clipPath><clipPath id="1e8722f82d"><path d="M 506.804688 602 L 648 602 L 648 971.863281 L 506.804688 971.863281 Z M 506.804688 602 " clip-rule="nonzero"/></clipPath><clipPath id="c61ffbe6c9"><path d="M 0.804688 0.175781 L 141 0.175781 L 141 369.5 L 0.804688 369.5 Z M 0.804688 0.175781 " clip-rule="nonzero"/></clipPath><clipPath id="48278027b3"><rect x="0" width="142" y="0" height="370"/></clipPath><clipPath id="6c68927ec5"><path d="M 363.164062 602 L 504 602 L 504 971.863281 L 363.164062 971.863281 Z M 363.164062 602 " clip-rule="nonzero"/></clipPath><clipPath id="08ad2d93ed"><path d="M 0.164062 0.175781 L 140.378906 0.175781 L 140.378906 369.5 L 0.164062 369.5 Z M 0.164062 0.175781 " clip-rule="nonzero"/></clipPath><clipPath id="147e668119"><rect x="0" width="141" y="0" height="370"/></clipPath></defs><g clip-path="url(#28d316eee3)"><path stroke-linecap="butt" transform="matrix(0.75, 0, 0, 0.75, 0.00003335, -0.00002)" fill="none" stroke-linejoin="miter" d="M 999.999978 0.0000266667 C 447.713507 0.0000266667 -0.0000444667 447.713578 -0.0000444667 1000.000049 C -0.0000444667 1552.286519 447.713507 2000.000071 999.999978 2000.000071 C 1552.286448 2000.000071 2000 1552.286519 2000 1000.000049 C 2000 447.713578 1552.286448 0.0000266667 999.999978 0.0000266667 Z M 999.999978 0.0000266667 " stroke="#000000" stroke-width="200" stroke-opacity="1" stroke-miterlimit="4"/></g><g clip-path="url(#7cad91c954)"><path fill="#000000" d="M 846.90625 279.597656 C 846.90625 327.347656 808.203125 366.046875 760.453125 366.046875 L 479.804688 366.046875 C 478.214844 359.511719 477.378906 352.679688 477.378906 345.644531 C 477.378906 297.894531 516.078125 259.195312 563.828125 259.195312 L 760.453125 259.195312 C 788.027344 259.195312 812.589844 246.285156 828.417969 226.183594 C 835.964844 235.753906 841.53125 246.960938 844.480469 259.195312 C 846.070312 265.726562 846.90625 272.5625 846.90625 279.597656 " fill-opacity="1" fill-rule="nonzero"/></g><g clip-path="url(#c5963fe358)"><path fill="#000000" d="M 709.164062 460.886719 C 709.164062 494.210938 690.308594 523.140625 662.671875 537.550781 C 650.71875 543.796875 637.128906 547.324219 622.714844 547.324219 L 503.53125 547.324219 C 423.335938 547.324219 355.453125 600.09375 332.734375 672.808594 C 327.460938 655.933594 324.621094 637.992188 324.621094 619.382812 C 324.621094 593.75 330.011719 569.375 339.726562 547.324219 C 367.453125 484.40625 430.359375 440.472656 503.53125 440.472656 L 622.714844 440.472656 C 650.285156 440.472656 674.847656 427.5625 690.675781 407.460938 C 698.222656 417.035156 703.777344 428.242188 706.738281 440.472656 C 708.328125 447.019531 709.164062 453.851562 709.164062 460.886719 " fill-opacity="1" fill-rule="nonzero"/></g><g clip-path="url(#21e885a648)"><path fill="#000000" d="M 852.597656 602.765625 L 1057.257812 602.765625 C 1096.363281 602.765625 1131.90625 618.777344 1157.542969 644.53125 C 1183.265625 670.285156 1199.257812 705.871094 1199.257812 744.9375 C 1199.257812 784.089844 1183.265625 819.675781 1157.542969 845.34375 C 1131.820312 871.097656 1096.277344 887.105469 1057.257812 887.105469 L 975.65625 887.105469 C 962.621094 887.105469 950.800781 892.5 942.109375 901.113281 C 933.507812 909.726562 928.117188 921.648438 928.117188 934.699219 L 928.117188 996.300781 C 928.117188 1006.738281 919.601562 1015.265625 909.171875 1015.265625 L 852.597656 1015.265625 C 842.171875 1015.265625 833.65625 1006.738281 833.65625 996.300781 L 833.65625 934.699219 C 833.65625 895.546875 849.644531 859.960938 875.367188 834.292969 C 901.089844 808.539062 936.636719 792.527344 975.65625 792.527344 L 1057.257812 792.527344 C 1070.292969 792.527344 1082.113281 787.132812 1090.800781 778.519531 C 1099.40625 769.90625 1104.792969 757.988281 1104.792969 744.9375 C 1104.792969 731.886719 1099.40625 720.050781 1090.800781 711.351562 C 1082.199219 702.738281 1070.292969 697.34375 1057.257812 697.34375 L 963.664062 697.34375 C 950.625 697.34375 938.808594 702.738281 930.117188 711.351562 C 921.515625 719.964844 916.125 731.886719 916.125 744.9375 L 916.125 773.386719 C 916.125 781.042969 909.867188 787.308594 902.222656 787.308594 L 847.558594 787.308594 C 839.910156 787.308594 833.65625 781.042969 833.65625 773.386719 L 833.65625 621.734375 C 833.65625 611.292969 842.171875 602.765625 852.597656 602.765625 Z M 852.597656 602.765625 " fill-opacity="1" fill-rule="evenodd"/></g><g clip-path="url(#d51b7d3a69)"><path fill="#000000" d="M 817.761719 868.425781 C 817.761719 826.601562 851.660156 792.703125 893.484375 792.703125 L 1139.304688 792.703125 C 1140.699219 798.425781 1141.429688 804.410156 1141.429688 810.574219 C 1141.429688 852.394531 1107.53125 886.292969 1065.710938 886.292969 L 893.484375 886.292969 C 869.335938 886.292969 847.820312 897.601562 833.957031 915.210938 C 827.347656 906.824219 822.472656 897.007812 819.886719 886.292969 C 818.492188 880.570312 817.761719 874.585938 817.761719 868.425781 " fill-opacity="1" fill-rule="nonzero"/></g><g clip-path="url(#de93815425)"><path fill="#000000" d="M 983.90625 805.28125 C 1017.230469 805.28125 1046.160156 824.136719 1060.570312 851.773438 C 1066.816406 863.726562 1070.34375 877.316406 1070.34375 891.730469 L 1070.34375 1010.914062 C 1070.34375 1091.109375 1123.113281 1158.992188 1195.828125 1181.710938 C 1178.953125 1186.984375 1161.011719 1189.824219 1142.402344 1189.824219 C 1116.769531 1189.824219 1092.394531 1184.433594 1070.34375 1174.71875 C 1007.425781 1146.992188 963.492188 1084.085938 963.492188 1010.914062 L 963.492188 891.730469 C 963.492188 864.160156 950.582031 839.59375 930.480469 823.769531 C 940.054688 816.222656 951.261719 810.667969 963.492188 807.707031 C 970.039062 806.117188 976.871094 805.28125 983.90625 805.28125 " fill-opacity="1" fill-rule="nonzero"/></g><g clip-path="url(#ecedd5d967)"><g transform="matrix(1, 0, 0, 1, 650, 602)"><g clip-path="url(#a8fc4cd155)"><g clip-path="url(#81f2260e17)"><path fill="#000000" d="M 53.863281 369.8125 C 101.613281 369.8125 140.3125 331.109375 140.3125 283.359375 L 140.3125 2.710938 C 133.777344 1.121094 126.945312 0.285156 119.910156 0.285156 C 72.160156 0.285156 33.460938 38.984375 33.460938 86.734375 L 33.460938 283.359375 C 33.460938 310.929688 20.550781 335.496094 0.449219 351.324219 C 10.019531 358.871094 21.226562 364.4375 33.460938 367.386719 C 39.992188 368.976562 46.828125 369.8125 53.863281 369.8125 " fill-opacity="1" fill-rule="nonzero"/></g></g></g></g><g clip-path="url(#1e8722f82d)"><g transform="matrix(1, 0, 0, 1, 506, 602)"><g clip-path="url(#48278027b3)"><g clip-path="url(#c61ffbe6c9)"><path fill="#000000" d="M 54.21875 369.8125 C 101.96875 369.8125 140.667969 331.109375 140.667969 283.359375 L 140.667969 2.710938 C 134.136719 1.121094 127.304688 0.285156 120.269531 0.285156 C 72.519531 0.285156 33.820312 38.984375 33.820312 86.734375 L 33.820312 283.359375 C 33.820312 310.929688 20.90625 335.496094 0.804688 351.324219 C 10.375 358.871094 21.585938 364.4375 33.820312 367.386719 C 40.351562 368.976562 47.183594 369.8125 54.21875 369.8125 " fill-opacity="1" fill-rule="nonzero"/></g></g></g></g><g clip-path="url(#6c68927ec5)"><g transform="matrix(1, 0, 0, 1, 363, 602)"><g clip-path="url(#147e668119)"><g clip-path="url(#08ad2d93ed)"><path fill="#000000" d="M 53.578125 369.8125 C 101.328125 369.8125 140.027344 331.109375 140.027344 283.359375 L 140.027344 2.710938 C 133.492188 1.121094 126.660156 0.285156 119.625 0.285156 C 71.875 0.285156 33.175781 38.984375 33.175781 86.734375 L 33.175781 283.359375 C 33.175781 310.929688 20.265625 335.496094 0.164062 351.324219 C 9.734375 358.871094 20.941406 364.4375 33.175781 367.386719 C 39.710938 368.976562 46.542969 369.8125 53.578125 369.8125 " fill-opacity="1" fill-rule="nonzero"/></g></g></g></g></svg>