<svg xmlns="http://www.w3.org/2000/svg" xmlns:xlink="http://www.w3.org/1999/xlink" width="2000" zoomAndPan="magnify" viewBox="0 0 1500 1499.999933" height="2000" preserveAspectRatio="xMidYMid meet" version="1.0"><defs><clipPath id="2a08f42b2c"><path d="M 204 237.300781 L 695.929688 237.300781 L 695.929688 619.050781 L 204 619.050781 Z M 204 237.300781 " clip-rule="nonzero"/></clipPath><clipPath id="ee918c0997"><path d="M 339 509.300781 L 695.84375 509.300781 L 695.84375 1026.097656 L 339 1026.097656 Z M 339 509.300781 " clip-rule="nonzero"/></clipPath><clipPath id="c0fbf57587"><path d="M 693.710938 601.382812 L 882 601.382812 L 882 1098 L 693.710938 1098 Z M 693.710938 601.382812 " clip-rule="nonzero"/></clipPath><clipPath id="814299fe93"><path d="M 937 786.355469 L 1293.710938 786.355469 L 1293.710938 1303.148438 L 937 1303.148438 Z M 937 786.355469 " clip-rule="nonzero"/></clipPath></defs><g clip-path="url(#2a08f42b2c)"><path fill="#ffffff" d="M 229.664062 237.300781 L 504.789062 237.300781 C 557.363281 237.300781 605.144531 258.796875 639.609375 293.375 C 674.1875 327.957031 695.683594 375.738281 695.683594 428.195312 C 695.683594 480.765625 674.1875 528.546875 639.609375 563.011719 C 605.027344 597.59375 557.246094 619.089844 504.789062 619.089844 L 395.089844 619.089844 C 377.566406 619.089844 361.679688 626.332031 349.996094 637.898438 C 338.429688 649.464844 331.1875 665.46875 331.1875 682.992188 L 331.1875 765.707031 C 331.1875 779.726562 319.738281 791.175781 305.71875 791.175781 L 229.664062 791.175781 C 215.644531 791.175781 204.195312 779.726562 204.195312 765.707031 L 204.195312 682.992188 C 204.195312 630.421875 225.691406 582.636719 260.273438 548.175781 C 294.851562 513.59375 342.636719 492.097656 395.089844 492.097656 L 504.789062 492.097656 C 522.316406 492.097656 538.203125 484.855469 549.886719 473.289062 C 561.453125 461.722656 568.695312 445.71875 568.695312 428.195312 C 568.695312 410.667969 561.453125 394.78125 549.886719 383.097656 C 538.320312 371.53125 522.316406 364.289062 504.789062 364.289062 L 378.96875 364.289062 C 361.445312 364.289062 345.554688 371.53125 333.875 383.097656 C 322.308594 394.664062 315.0625 410.667969 315.0625 428.195312 L 315.0625 466.394531 C 315.0625 476.675781 306.652344 485.089844 296.371094 485.089844 L 222.886719 485.089844 C 212.605469 485.089844 204.195312 476.675781 204.195312 466.394531 L 204.195312 262.765625 C 204.195312 248.746094 215.644531 237.300781 229.664062 237.300781 Z M 229.664062 237.300781 " fill-opacity="1" fill-rule="evenodd"/></g><g clip-path="url(#ee918c0997)"><path fill="#ffffff" d="M 411.203125 509.410156 C 455.980469 509.410156 494.847656 534.746094 514.214844 571.878906 C 522.605469 587.941406 527.34375 606.203125 527.34375 625.566406 L 527.34375 785.707031 C 527.34375 893.460938 598.246094 984.671875 695.949219 1015.195312 C 673.277344 1022.285156 649.167969 1026.097656 624.167969 1026.097656 C 589.722656 1026.097656 556.972656 1018.859375 527.34375 1005.800781 C 442.804688 968.550781 383.773438 884.023438 383.773438 785.707031 L 383.773438 625.566406 C 383.773438 588.523438 366.425781 555.515625 339.417969 534.25 C 352.28125 524.109375 367.339844 516.648438 383.773438 512.671875 C 392.570312 510.53125 401.753906 509.410156 411.203125 509.410156 " fill-opacity="1" fill-rule="nonzero"/></g><g clip-path="url(#c0fbf57587)"><path fill="#ffffff" d="M 765.480469 601.382812 C 829.636719 601.382812 881.636719 653.386719 881.636719 717.546875 L 881.636719 1094.640625 C 872.855469 1096.777344 863.675781 1097.898438 854.222656 1097.898438 C 790.066406 1097.898438 738.066406 1045.898438 738.066406 981.742188 L 738.066406 717.546875 C 738.066406 680.5 720.71875 647.492188 693.710938 626.226562 C 706.570312 616.085938 721.628906 608.609375 738.066406 604.644531 C 746.84375 602.507812 756.027344 601.382812 765.480469 601.382812 " fill-opacity="1" fill-rule="nonzero"/></g><g clip-path="url(#814299fe93)"><path fill="#ffffff" d="M 1009.066406 786.460938 C 1053.84375 786.460938 1092.714844 811.796875 1112.078125 848.929688 C 1120.46875 864.992188 1125.210938 883.253906 1125.210938 902.617188 L 1125.210938 1062.761719 C 1125.210938 1170.511719 1196.113281 1261.722656 1293.816406 1292.25 C 1271.144531 1299.335938 1247.035156 1303.148438 1222.03125 1303.148438 C 1187.589844 1303.148438 1154.835938 1295.910156 1125.210938 1282.855469 C 1040.671875 1245.601562 981.640625 1161.074219 981.640625 1062.761719 L 981.640625 902.617188 C 981.640625 865.574219 964.292969 832.570312 937.285156 811.304688 C 950.148438 801.164062 965.207031 793.703125 981.640625 789.722656 C 990.4375 787.585938 999.617188 786.460938 1009.066406 786.460938 " fill-opacity="1" fill-rule="nonzero"/></g></svg>