<svg xmlns="http://www.w3.org/2000/svg" xmlns:xlink="http://www.w3.org/1999/xlink" width="2000" zoomAndPan="magnify" viewBox="0 0 1500 1499.999933" height="2000" preserveAspectRatio="xMidYMid meet" version="1.0"><defs><clipPath id="2ca43d0a36"><path d="M 379.386719 123.832031 L 876.046875 123.832031 L 876.046875 312 L 379.386719 312 Z M 379.386719 123.832031 " clip-rule="nonzero"/></clipPath><clipPath id="46cdf3b06c"><path d="M 174.28125 367 L 691 367 L 691 723.832031 L 174.28125 723.832031 Z M 174.28125 367 " clip-rule="nonzero"/></clipPath><clipPath id="3eac616846"><path d="M 858 629.832031 L 1349.972656 629.832031 L 1349.972656 1011.582031 L 858 1011.582031 Z M 858 629.832031 " clip-rule="nonzero"/></clipPath><clipPath id="a9325d740a"><path d="M 837.125 885 L 1271.902344 885 L 1271.902344 1049.640625 L 837.125 1049.640625 Z M 837.125 885 " clip-rule="nonzero"/></clipPath><clipPath id="dbd8886ff6"><path d="M 988 901.835938 L 1344.765625 901.835938 L 1344.765625 1418.632812 L 988 1418.632812 Z M 988 901.835938 " clip-rule="nonzero"/></clipPath><clipPath id="9f96c85e68"><path d="M 612.074219 629 L 801 629 L 801 1125.773438 L 612.074219 1125.773438 Z M 612.074219 629 " clip-rule="nonzero"/></clipPath><clipPath id="ee6f5e0212"><path d="M 0.0742188 0.0429688 L 188.472656 0.0429688 L 188.472656 496.703125 L 0.0742188 496.703125 Z M 0.0742188 0.0429688 " clip-rule="nonzero"/></clipPath><clipPath id="91fc172572"><rect x="0" width="189" y="0" height="497"/></clipPath><clipPath id="bd4f282148"><path d="M 419.070312 629 L 608 629 L 608 1125.773438 L 419.070312 1125.773438 Z M 419.070312 629 " clip-rule="nonzero"/></clipPath><clipPath id="76571146c0"><path d="M 0.0703125 0.0429688 L 188 0.0429688 L 188 496.703125 L 0.0703125 496.703125 Z M 0.0703125 0.0429688 " clip-rule="nonzero"/></clipPath><clipPath id="737ffabc9c"><rect x="0" width="189" y="0" height="497"/></clipPath><clipPath id="25df3d29fa"><path d="M 226.0625 629 L 415 629 L 415 1125.773438 L 226.0625 1125.773438 Z M 226.0625 629 " clip-rule="nonzero"/></clipPath><clipPath id="ac081272d2"><path d="M 0.0625 0.0429688 L 188 0.0429688 L 188 496.703125 L 0.0625 496.703125 Z M 0.0625 0.0429688 " clip-rule="nonzero"/></clipPath><clipPath id="962664ff0e"><rect x="0" width="189" y="0" height="497"/></clipPath></defs><g clip-path="url(#2ca43d0a36)"><path fill="#ffffff" d="M 876.046875 195.605469 C 876.046875 259.761719 824.042969 311.761719 759.882812 311.761719 L 382.789062 311.761719 C 380.652344 302.980469 379.53125 293.800781 379.53125 284.347656 C 379.53125 220.191406 431.53125 168.191406 495.6875 168.191406 L 759.882812 168.191406 C 796.929688 168.191406 829.9375 150.84375 851.203125 123.832031 C 861.34375 136.695312 868.820312 151.753906 872.785156 168.191406 C 874.921875 176.96875 876.046875 186.152344 876.046875 195.605469 " fill-opacity="1" fill-rule="nonzero"/></g><g clip-path="url(#46cdf3b06c)"><path fill="#ffffff" d="M 690.96875 439.191406 C 690.96875 483.96875 665.632812 522.839844 628.5 542.203125 C 612.4375 550.59375 594.175781 555.335938 574.8125 555.335938 L 414.667969 555.335938 C 306.917969 555.335938 215.707031 626.238281 185.183594 723.941406 C 178.09375 701.269531 174.28125 677.160156 174.28125 652.15625 C 174.28125 617.714844 181.519531 584.960938 194.574219 555.335938 C 231.828125 470.796875 316.355469 411.765625 414.667969 411.765625 L 574.8125 411.765625 C 611.855469 411.765625 644.863281 394.417969 666.128906 367.410156 C 676.269531 380.273438 683.730469 395.328125 687.707031 411.765625 C 689.84375 420.5625 690.96875 429.742188 690.96875 439.191406 " fill-opacity="1" fill-rule="nonzero"/></g><g clip-path="url(#3eac616846)"><path fill="#ffffff" d="M 883.707031 629.832031 L 1158.832031 629.832031 C 1211.40625 629.832031 1259.1875 651.328125 1293.652344 685.910156 C 1328.230469 720.492188 1349.726562 768.273438 1349.726562 820.730469 C 1349.726562 873.300781 1328.230469 921.082031 1293.652344 955.546875 C 1259.070312 990.128906 1211.289062 1011.625 1158.832031 1011.625 L 1049.132812 1011.625 C 1031.609375 1011.625 1015.722656 1018.867188 1004.039062 1030.433594 C 992.472656 1042 985.230469 1058.003906 985.230469 1075.527344 L 985.230469 1158.242188 C 985.230469 1172.261719 973.78125 1183.707031 959.761719 1183.707031 L 883.707031 1183.707031 C 869.6875 1183.707031 858.238281 1172.261719 858.238281 1158.242188 L 858.238281 1075.527344 C 858.238281 1022.957031 879.734375 975.171875 914.316406 940.710938 C 948.894531 906.128906 996.679688 884.632812 1049.132812 884.632812 L 1158.832031 884.632812 C 1176.355469 884.632812 1192.246094 877.390625 1203.929688 865.824219 C 1215.496094 854.257812 1222.738281 838.253906 1222.738281 820.730469 C 1222.738281 803.203125 1215.496094 787.316406 1203.929688 775.632812 C 1192.363281 764.066406 1176.355469 756.824219 1158.832031 756.824219 L 1033.011719 756.824219 C 1015.488281 756.824219 999.597656 764.066406 987.917969 775.632812 C 976.351562 787.199219 969.105469 803.203125 969.105469 820.730469 L 969.105469 858.929688 C 969.105469 869.210938 960.695312 877.625 950.414062 877.625 L 876.929688 877.625 C 866.648438 877.625 858.238281 869.210938 858.238281 858.929688 L 858.238281 655.300781 C 858.238281 641.28125 869.6875 629.832031 883.707031 629.832031 Z M 883.707031 629.832031 " fill-opacity="1" fill-rule="evenodd"/></g><g clip-path="url(#a9325d740a)"><path fill="#ffffff" d="M 836.878906 986.777344 C 836.878906 930.582031 882.429688 885.035156 938.625 885.035156 L 1268.921875 885.035156 C 1270.792969 892.726562 1271.777344 900.765625 1271.777344 909.046875 C 1271.777344 965.242188 1226.230469 1010.789062 1170.035156 1010.789062 L 938.625 1010.789062 C 906.175781 1010.789062 877.265625 1025.984375 858.640625 1049.640625 C 849.757812 1038.378906 843.207031 1025.1875 839.734375 1010.789062 C 837.863281 1003.101562 836.878906 995.058594 836.878906 986.777344 " fill-opacity="1" fill-rule="nonzero"/></g><g clip-path="url(#dbd8886ff6)"><path fill="#ffffff" d="M 1060.125 901.945312 C 1104.902344 901.945312 1143.769531 927.28125 1163.136719 964.414062 C 1171.527344 980.476562 1176.265625 998.734375 1176.265625 1018.101562 L 1176.265625 1178.242188 C 1176.265625 1285.996094 1247.167969 1377.207031 1344.871094 1407.730469 C 1322.199219 1414.816406 1298.089844 1418.632812 1273.089844 1418.632812 C 1238.644531 1418.632812 1205.894531 1411.394531 1176.265625 1398.335938 C 1091.726562 1361.085938 1032.695312 1276.558594 1032.695312 1178.242188 L 1032.695312 1018.101562 C 1032.695312 981.058594 1015.347656 948.050781 988.339844 926.785156 C 1001.203125 916.644531 1016.261719 909.183594 1032.695312 905.207031 C 1041.492188 903.066406 1050.675781 901.945312 1060.125 901.945312 " fill-opacity="1" fill-rule="nonzero"/></g><g clip-path="url(#9f96c85e68)"><g transform="matrix(1, 0, 0, 1, 612, 629)"><g clip-path="url(#91fc172572)"><g clip-path="url(#ee6f5e0212)"><path fill="#ffffff" d="M 71.84375 496.703125 C 136.003906 496.703125 188.003906 444.699219 188.003906 380.539062 L 188.003906 3.445312 C 179.222656 1.308594 170.042969 0.1875 160.589844 0.1875 C 96.433594 0.1875 44.433594 52.1875 44.433594 116.34375 L 44.433594 380.539062 C 44.433594 417.585938 27.085938 450.59375 0.0742188 471.859375 C 12.933594 482 27.996094 489.476562 44.433594 493.441406 C 53.210938 495.578125 62.394531 496.703125 71.84375 496.703125 " fill-opacity="1" fill-rule="nonzero"/></g></g></g></g><g clip-path="url(#bd4f282148)"><g transform="matrix(1, 0, 0, 1, 419, 629)"><g clip-path="url(#737ffabc9c)"><g clip-path="url(#76571146c0)"><path fill="#ffffff" d="M 71.839844 496.703125 C 135.996094 496.703125 187.996094 444.699219 187.996094 380.539062 L 187.996094 3.445312 C 179.21875 1.308594 170.039062 0.1875 160.585938 0.1875 C 96.425781 0.1875 44.429688 52.1875 44.429688 116.34375 L 44.429688 380.539062 C 44.429688 417.585938 27.078125 450.59375 0.0703125 471.859375 C 12.929688 482 27.988281 489.476562 44.429688 493.441406 C 53.203125 495.578125 62.386719 496.703125 71.839844 496.703125 " fill-opacity="1" fill-rule="nonzero"/></g></g></g></g><g clip-path="url(#25df3d29fa)"><g transform="matrix(1, 0, 0, 1, 226, 629)"><g clip-path="url(#962664ff0e)"><g clip-path="url(#ac081272d2)"><path fill="#ffffff" d="M 71.832031 496.703125 C 135.992188 496.703125 187.992188 444.699219 187.992188 380.539062 L 187.992188 3.445312 C 179.210938 1.308594 170.03125 0.1875 160.578125 0.1875 C 96.421875 0.1875 44.421875 52.1875 44.421875 116.34375 L 44.421875 380.539062 C 44.421875 417.585938 27.074219 450.59375 0.0625 471.859375 C 12.921875 482 27.984375 489.476562 44.421875 493.441406 C 53.199219 495.578125 62.382812 496.703125 71.832031 496.703125 " fill-opacity="1" fill-rule="nonzero"/></g></g></g></g></svg>