<svg xmlns="http://www.w3.org/2000/svg" xmlns:xlink="http://www.w3.org/1999/xlink" width="2000" zoomAndPan="magnify" viewBox="0 0 1500 1499.999933" height="2000" preserveAspectRatio="xMidYMid meet" version="1.0"><defs><clipPath id="5301136a63"><path d="M 481.5 150 L 1018.5 150 L 1018.5 942 L 481.5 942 Z M 481.5 150 " clip-rule="nonzero"/></clipPath><clipPath id="4f2c6fb7e6"><path d="M 481.5 150 L 1018.5 150 L 1018.5 942 L 481.5 942 Z M 481.5 150 " clip-rule="nonzero"/></clipPath></defs><g clip-path="url(#5301136a63)"><path fill="#f5f5f5" d="M 749.945312 150 C 602.050781 150 481.726562 270.304688 481.726562 418.203125 L 481.726562 672.8125 C 481.726562 820.710938 602.050781 941.015625 749.945312 941.015625 C 897.84375 941.015625 1018.148438 820.710938 1018.148438 672.8125 L 1018.148438 418.203125 C 1018.148438 270.304688 897.84375 150 749.945312 150 Z M 942.136719 672.8125 C 942.136719 778.789062 855.921875 865.003906 749.945312 865.003906 C 643.972656 865.003906 557.734375 778.789062 557.734375 672.8125 L 557.734375 418.203125 C 557.734375 312.226562 643.972656 226.011719 749.945312 226.011719 C 855.921875 226.011719 942.136719 312.226562 942.136719 418.203125 Z M 942.136719 672.8125 " fill-opacity="1" fill-rule="nonzero"/></g><path fill="#f5f5f5" d="M 749.945312 309.382812 C 728.953125 309.382812 711.941406 326.394531 711.941406 347.386719 L 711.941406 450.328125 C 711.941406 471.324219 728.953125 488.335938 749.945312 488.335938 C 770.941406 488.335938 787.953125 471.324219 787.953125 450.328125 L 787.953125 347.386719 C 787.953125 326.394531 770.941406 309.382812 749.945312 309.382812 Z M 749.945312 309.382812 " fill-opacity="1" fill-rule="nonzero"/><path fill="#f5f5f5" d="M 828.804688 998.117188 L 749.945312 1076.953125 L 671.089844 998.117188 C 656.242188 983.269531 632.199219 983.269531 617.351562 998.117188 C 602.503906 1012.941406 602.503906 1037.027344 617.351562 1051.855469 L 723.078125 1157.582031 C 730.5 1165.003906 740.214844 1168.71875 749.945312 1168.71875 C 759.679688 1168.71875 769.394531 1165.003906 776.816406 1157.582031 L 882.542969 1051.855469 C 897.390625 1037.027344 897.390625 1012.941406 882.542969 998.117188 C 867.695312 983.269531 843.652344 983.269531 828.804688 998.117188 Z M 828.804688 998.117188 " fill-opacity="1" fill-rule="nonzero"/><path fill="#f5f5f5" d="M 828.804688 1179.398438 L 749.945312 1258.234375 L 671.089844 1179.398438 C 656.242188 1164.550781 632.199219 1164.550781 617.351562 1179.398438 C 602.503906 1194.226562 602.503906 1218.3125 617.351562 1233.136719 L 723.078125 1338.863281 C 730.5 1346.289062 740.214844 1350 749.945312 1350 C 759.679688 1350 769.394531 1346.289062 776.816406 1338.863281 L 882.542969 1233.136719 C 897.390625 1218.3125 897.390625 1194.226562 882.542969 1179.398438 C 867.695312 1164.550781 843.652344 1164.550781 828.804688 1179.398438 Z M 828.804688 1179.398438 " fill-opacity="1" fill-rule="nonzero"/><g clip-path="url(#4f2c6fb7e6)"><path fill="#f5f5f5" d="M 749.945312 150 C 602.050781 150 481.726562 270.304688 481.726562 418.203125 L 481.726562 672.8125 C 481.726562 820.710938 602.050781 941.015625 749.945312 941.015625 C 897.84375 941.015625 1018.148438 820.710938 1018.148438 672.8125 L 1018.148438 418.203125 C 1018.148438 270.304688 897.84375 150 749.945312 150 Z M 942.136719 672.8125 C 942.136719 778.789062 855.921875 865.003906 749.945312 865.003906 C 643.972656 865.003906 557.734375 778.789062 557.734375 672.8125 L 557.734375 418.203125 C 557.734375 312.226562 643.972656 226.011719 749.945312 226.011719 C 855.921875 226.011719 942.136719 312.226562 942.136719 418.203125 Z M 942.136719 672.8125 " fill-opacity="1" fill-rule="nonzero"/></g><path fill="#f5f5f5" d="M 749.945312 309.382812 C 728.953125 309.382812 711.941406 326.394531 711.941406 347.386719 L 711.941406 450.328125 C 711.941406 471.324219 728.953125 488.335938 749.945312 488.335938 C 770.941406 488.335938 787.953125 471.324219 787.953125 450.328125 L 787.953125 347.386719 C 787.953125 326.394531 770.941406 309.382812 749.945312 309.382812 Z M 749.945312 309.382812 " fill-opacity="1" fill-rule="nonzero"/><path fill="#f5f5f5" d="M 828.804688 998.117188 L 749.945312 1076.953125 L 671.089844 998.117188 C 656.242188 983.269531 632.199219 983.269531 617.351562 998.117188 C 602.503906 1012.941406 602.503906 1037.027344 617.351562 1051.855469 L 723.078125 1157.582031 C 730.5 1165.003906 740.214844 1168.71875 749.945312 1168.71875 C 759.679688 1168.71875 769.394531 1165.003906 776.816406 1157.582031 L 882.542969 1051.855469 C 897.390625 1037.027344 897.390625 1012.941406 882.542969 998.117188 C 867.695312 983.269531 843.652344 983.269531 828.804688 998.117188 Z M 828.804688 998.117188 " fill-opacity="1" fill-rule="nonzero"/><path fill="#f5f5f5" d="M 828.804688 1179.398438 L 749.945312 1258.234375 L 671.089844 1179.398438 C 656.242188 1164.550781 632.199219 1164.550781 617.351562 1179.398438 C 602.503906 1194.226562 602.503906 1218.3125 617.351562 1233.136719 L 723.078125 1338.863281 C 730.5 1346.289062 740.214844 1350 749.945312 1350 C 759.679688 1350 769.394531 1346.289062 776.816406 1338.863281 L 882.542969 1233.136719 C 897.390625 1218.3125 897.390625 1194.226562 882.542969 1179.398438 C 867.695312 1164.550781 843.652344 1164.550781 828.804688 1179.398438 Z M 828.804688 1179.398438 " fill-opacity="1" fill-rule="nonzero"/></svg>